# Blender 5.0.0
# www.blender.org
mtllib Cube1.mtl
o Cube1
v 0.017651 0.340000 0.043670
v 0.017651 -0.340000 0.043670
v 0.017651 -0.130000 0.933670
v 0.017651 0.130000 0.933670
v -0.415190 0.237869 0.476511
v 0.462651 0.235000 0.488670
v -0.427349 -0.235000 0.488670
v 0.462651 -0.235000 0.488670
vn -0.0000 0.9733 0.2296
vn -0.0000 -0.9733 0.2296
vn 0.7071 -0.0000 -0.7071
vn -0.7071 -0.0000 -0.7071
vn -0.7165 0.0235 0.6972
vn 0.7071 -0.0000 0.7071
vt 0.750000 0.750000
vt 0.687500 0.687500
vt 0.750000 0.625000
vt 0.810792 0.685792
vt 0.250000 0.625000
vt 0.312500 0.687500
vt 0.250000 0.750000
vt 0.187500 0.687500
s 0
f 4/1/1 6/2/1 1/3/1 5/4/1
f 2/5/2 8/6/2 3/7/2 7/8/2
f 1/3/3 6/2/3 8/6/3 2/5/3
f 1/3/4 2/5/4 7/8/4 5/4/4
f 3/7/5 4/1/5 5/4/5 7/8/5
f 3/7/6 8/6/6 6/2/6 4/1/6
