# Blender 5.0.0
# www.blender.org
mtllib Cube1.mtl
o Cube1.001
v -0.001520 -0.443480 -0.339641
v -0.001520 -0.443480 0.340359
v -0.001520 0.446520 0.130359
v -0.001520 0.446520 -0.129641
v -0.434361 -0.010639 -0.237510
v 0.443480 0.001520 -0.234641
v -0.446520 0.001520 0.235359
v 0.443480 0.001520 0.235359
vn -0.0000 0.2296 -0.9733
vn -0.0000 0.2296 0.9733
vn 0.7071 -0.7071 -0.0000
vn -0.7071 -0.7071 -0.0000
vn -0.7165 0.6972 -0.0235
vn -0.7165 0.6972 -0.0234
vn 0.7071 0.7071 -0.0000
vt 0.687500 0.687500
vt 0.810792 0.685792
vt 0.750000 0.750000
vt 0.312500 0.687500
vt 0.187500 0.687500
vt 0.250000 0.625000
vt 0.750000 0.625000
vt 0.250000 0.750000
s 1
f 6/1/1 5/2/1 4/3/1
s 2
f 8/4/2 7/5/2 2/6/2
s 3
f 6/1/3 2/6/3 1/7/3
s 4
f 2/6/4 5/2/4 1/7/4
s 5
f 4/3/5 7/5/6 3/8/6
s 6
f 8/4/7 4/3/7 3/8/7
s 1
f 6/1/1 1/7/1 5/2/1
s 2
f 8/4/2 3/8/2 7/5/2
s 3
f 6/1/3 8/4/3 2/6/3
s 4
f 2/6/4 7/5/4 5/2/4
s 5
f 4/3/5 5/2/6 7/5/6
s 6
f 8/4/7 6/1/7 4/3/7
