# Blender 5.0.0
# www.blender.org
mtllib MajorTriangle1.mtl
o MajorTriangle1
v 0.952086 -0.130000 0.873390
v 0.952086 0.130000 0.873390
v 0.952086 -0.130000 -0.906609
v 0.952086 0.130000 -0.906609
v 0.062086 0.340000 -0.016610
v 0.062086 -0.340000 -0.016610
vn 0.2296 0.9733 -0.0000
vn 1.0000 -0.0000 -0.0000
vn 0.2296 -0.9733 -0.0000
vn -0.7071 -0.0000 -0.7071
vn -0.7071 -0.0000 0.7071
vt 0.625000 0.750000
vt 0.625000 0.500000
vt 0.750000 0.625000
vt 0.375000 0.500000
vt 0.375000 0.750000
vt 0.250000 0.625000
s 0
f 2/1/1 4/2/1 5/3/1
f 3/4/2 4/2/2 2/1/2 1/5/2
f 6/6/3 3/4/3 1/5/3
f 3/4/4 6/6/4 5/3/4 4/2/4
f 1/5/5 2/1/5 5/3/5 6/6/5
