# Blender 5.0.0
# www.blender.org
mtllib MiniTriangle1.mtl
o MiniTriangle2
v -0.048144 0.340000 -0.012457
v -0.048144 -0.340000 -0.012457
v -0.480984 0.237869 0.420384
v -0.493143 -0.235000 0.432543
v -0.489015 0.235974 -0.453329
v -0.488357 -0.236129 -0.452671
vn -0.2296 0.9733 -0.0000
vn -0.2296 -0.9733 -0.0000
vn 0.7071 -0.0000 0.7071
vn 0.7071 -0.0000 -0.7071
vn -0.9999 0.0122 0.0018
vt 0.811920 0.563080
vt 0.810792 0.685792
vt 0.750000 0.625000
vt 0.187500 0.687500
vt 0.188172 0.563172
vt 0.250000 0.625000
s 0
f 5/1/1 3/2/1 1/3/1
f 4/4/2 6/5/2 2/6/2
f 1/3/3 3/2/3 4/4/3 2/6/3
f 5/1/4 1/3/4 2/6/4 6/5/4
f 3/2/5 5/1/5 6/5/5 4/4/5
