# Blender 5.0.0
# www.blender.org
mtllib MiniTriangle1.mtl
o MiniTriangle1.001
v 0.293154 0.000541 -0.339548
v 0.293154 0.000541 0.340452
v -0.139686 0.433382 -0.237417
v -0.151845 0.445541 0.235452
v -0.147717 -0.440331 -0.235522
v -0.147059 -0.439673 0.236581
vn -0.2296 -0.0000 -0.9733
vn -0.2296 -0.0000 0.9733
vn 0.7071 0.7071 -0.0000
vn 0.7071 -0.7071 -0.0000
vn -0.9999 0.0018 -0.0122
vt 0.811920 0.563080
vt 0.810792 0.685792
vt 0.750000 0.625000
vt 0.187500 0.687500
vt 0.188172 0.563172
vt 0.250000 0.625000
s 1
f 5/1/1 3/2/1 1/3/1
s 2
f 4/4/2 6/5/2 2/6/2
s 3
f 3/2/3 2/6/3 1/3/3
s 4
f 1/3/4 6/5/4 5/1/4
s 5
f 3/2/5 6/5/5 4/4/5
s 3
f 3/2/3 4/4/3 2/6/3
s 4
f 1/3/4 2/6/4 6/5/4
s 5
f 3/2/5 5/1/5 6/5/5
