# Blender 5.0.0
# www.blender.org
mtllib Parallelogram.mtl
o Parallelogram.001
v -0.225134 -0.667094 0.130339
v -0.225134 -0.667094 -0.129661
v -0.225134 0.222906 0.130339
v -0.225134 0.222906 -0.129661
v 0.232025 0.655746 -0.237530
v 0.219866 0.667906 0.235339
v 0.223994 -0.217966 -0.235635
v 0.224652 -0.217308 0.236468
vn -0.2296 -0.0000 -0.9733
vn -0.2296 -0.0000 0.9733
vn -1.0000 -0.0000 -0.0000
vn -0.6972 0.7165 -0.0234
vn -0.6972 0.7165 -0.0235
vn 0.9999 -0.0018 0.0122
vn 0.7071 -0.7071 -0.0000
vt 0.875000 0.625000
vt 0.811920 0.563080
vt 0.625000 0.250000
vt 0.188172 0.563172
vt 0.125000 0.625000
vt 0.125000 0.500000
vt 0.375000 0.125000
vt 0.187500 0.687500
vt 0.810792 0.685792
vt 0.375000 0.250000
s 1
f 4/1/1 7/2/1 2/3/1
s 2
f 8/4/2 3/5/2 1/6/2
s 3
f 2/3/3 3/7/3 4/1/3
s 4
f 6/8/4 4/1/5 3/5/5
s 5
f 5/9/6 8/4/6 7/2/6
s 6
f 1/6/7 7/2/7 8/4/7
s 1
f 4/1/1 5/9/1 7/2/1
s 2
f 8/4/2 6/8/2 3/5/2
s 3
f 2/3/3 1/10/3 3/7/3
s 4
f 6/8/4 5/9/4 4/1/5
s 5
f 5/9/6 6/8/6 8/4/6
s 6
f 1/6/7 2/3/7 7/2/7
