# Blender 5.0.0
# www.blender.org
mtllib Pickagram.mtl
o MajorTriangle1
v 0.952086 -0.130000 0.873390
v 0.952086 0.130000 0.873390
v 0.952086 -0.130000 -0.906609
v 0.952086 0.130000 -0.906609
v 0.062086 0.340000 -0.016610
v 0.062086 -0.340000 -0.016610
vn 0.2296 0.9733 -0.0000
vn 1.0000 -0.0000 -0.0000
vn 0.2296 -0.9733 -0.0000
vn -0.7071 -0.0000 -0.7071
vn -0.7071 -0.0000 0.7071
vt 0.625000 0.750000
vt 0.625000 0.500000
vt 0.750000 0.625000
vt 0.375000 0.500000
vt 0.375000 0.750000
vt 0.250000 0.625000
s 0
f 2/1/1 4/2/1 5/3/1
f 3/4/2 4/2/2 2/1/2 1/5/2
f 6/6/3 3/4/3 1/5/3
f 3/4/4 6/6/4 5/3/4 4/2/4
f 1/5/5 2/1/5 5/3/5 6/6/5
o MajorTriangle2
v -0.885017 -0.130000 -0.943135
v -0.885017 0.130000 -0.943135
v 0.894983 -0.130000 -0.943135
v 0.894983 0.130000 -0.943135
v 0.004983 0.340000 -0.053135
v 0.004983 -0.340000 -0.053135
vn -0.0000 -0.0000 -1.0000
vn -0.0000 0.9733 -0.2296
vn -0.0000 -0.9733 -0.2296
vn -0.7071 -0.0000 0.7071
vn 0.7071 -0.0000 0.7071
vt 0.375000 0.500000
vt 0.375000 0.250000
vt 0.875000 0.500000
vt 0.625000 0.500000
vt 0.750000 0.625000
vt 0.250000 0.625000
s 0
f 9/7/6 7/8/6 8/9/6 10/10/6
f 11/11/7 10/10/7 8/9/7
f 7/8/8 9/7/8 12/12/8
f 7/8/9 12/12/9 11/11/9 8/9/9
f 9/7/10 10/10/10 11/11/10 12/12/10
o Parallelogram
v -1.001869 -0.130000 -0.948133
v -1.001869 0.130000 -0.948133
v -1.001869 -0.130000 -0.058133
v -1.001869 0.130000 -0.058133
v -0.544710 0.237869 0.374707
v -0.556869 -0.235000 0.386867
v -0.552741 0.235974 -0.499005
v -0.552083 -0.236129 -0.498347
vn -0.2296 0.9733 -0.0000
vn -0.2296 -0.9733 -0.0000
vn -1.0000 -0.0000 -0.0000
vn -0.6972 0.0235 0.7165
vn 0.9999 -0.0122 -0.0018
vn 0.7071 -0.0000 -0.7071
vt 0.625000 0.250000
vt 0.875000 0.625000
vt 0.810792 0.685792
vt 0.811920 0.563080
vt 0.125000 0.500000
vt 0.188172 0.563172
vt 0.187500 0.687500
vt 0.125000 0.625000
vt 0.375000 0.250000
vt 0.375000 0.125000
s 0
f 14/13/11 16/14/11 17/15/11 19/16/11
f 13/17/12 20/18/12 18/19/12 15/20/12
f 16/14/13 14/13/13 13/21/13 15/22/13
f 15/20/14 18/19/14 17/15/14 16/14/14
f 17/15/15 18/19/15 20/18/15 19/16/15
f 13/17/16 14/13/16 19/16/16 20/18/16
o MiniTriangle1
v -0.962861 -0.128197 0.964543
v -0.962861 0.131803 0.964543
v -0.962999 -0.128301 0.074571
v -0.962999 0.131699 0.074571
v -0.505702 0.239672 0.507384
v -0.517861 -0.233197 0.519543
v -0.072723 -0.128094 0.964516
v -0.072723 0.131906 0.964516
vn -0.2297 0.9733 -0.0001
vn -1.0000 -0.0000 0.0002
vn -0.2295 -0.9733 0.0001
vn 0.7071 -0.0000 0.7071
vn 0.6971 -0.0235 -0.7166
vn -0.0000 -0.0000 1.0000
vn -0.0001 0.9733 0.2295
vn 0.0001 -0.9732 0.2298
vn 0.7163 -0.0235 -0.6974
vt 0.875000 0.750000
vt 0.810792 0.685792
vt 0.875000 0.625000
vt 0.375000 0.125000
vt 0.375000 0.000000
vt 0.625000 0.000000
vt 0.125000 0.625000
vt 0.187500 0.687500
vt 0.125000 0.750000
vt 0.375000 0.875000
vt 0.625000 0.875000
vt 0.625000 1.000000
vt 0.375000 1.000000
vt 0.750000 0.750000
vt 0.250000 0.750000
s 0
f 22/23/17 25/24/17 24/25/17
f 23/26/18 21/27/18 22/28/18 24/25/18
f 23/29/19 26/30/19 21/31/19
f 21/31/20 26/30/20 25/24/20 22/23/20
f 23/29/21 24/25/21 25/24/21 26/30/21
f 27/32/22 28/33/22 22/34/22 21/35/22
f 28/36/23 25/24/23 22/23/23
f 26/30/24 27/37/24 21/31/24
f 27/37/25 26/30/25 25/24/25 28/36/25
o MiniTriangle2
v -0.048144 0.340000 -0.012457
v -0.048144 -0.340000 -0.012457
v -0.480984 0.237869 0.420384
v -0.493143 -0.235000 0.432543
v -0.489015 0.235974 -0.453329
v -0.488357 -0.236129 -0.452671
vn -0.2296 0.9733 -0.0000
vn -0.2296 -0.9733 -0.0000
vn 0.7071 -0.0000 0.7071
vn 0.7071 -0.0000 -0.7071
vn -0.9999 0.0122 0.0018
vt 0.811920 0.563080
vt 0.810792 0.685792
vt 0.750000 0.625000
vt 0.187500 0.687500
vt 0.188172 0.563172
vt 0.250000 0.625000
s 0
f 33/38/26 31/39/26 29/40/26
f 32/41/27 34/42/27 30/43/27
f 29/40/28 31/39/28 32/41/28 30/43/28
f 33/38/29 29/40/29 30/43/29 34/42/29
f 31/39/30 33/38/30 34/42/30 32/41/30
o MiniTriangle3
v 0.948964 -0.130000 0.969151
v 0.948964 0.130000 0.969151
v 0.058964 -0.130000 0.969151
v 0.058964 0.130000 0.969151
v 0.503964 0.235000 0.524151
v 0.503964 -0.235000 0.524151
vn -0.0000 0.9733 0.2296
vn -0.0000 -0.0000 1.0000
vn -0.0000 -0.9733 0.2296
vn 0.7071 -0.0000 -0.7071
vn -0.7071 -0.0000 -0.7071
vt 0.625000 0.750000
vt 0.687500 0.687500
vt 0.750000 0.750000
vt 0.375000 0.750000
vt 0.625000 0.875000
vt 0.375000 0.875000
vt 0.250000 0.750000
vt 0.312500 0.687500
s 0
f 36/44/31 39/45/31 38/46/31
f 35/47/32 36/44/32 38/48/32 37/49/32
f 37/50/33 40/51/33 35/47/33
f 35/47/34 40/51/34 39/45/34 36/44/34
f 37/50/35 38/46/35 39/45/35 40/51/35
o Cube1
v 0.017651 0.340000 0.043670
v 0.017651 -0.340000 0.043670
v 0.017651 -0.130000 0.933670
v 0.017651 0.130000 0.933670
v -0.415190 0.237869 0.476511
v 0.462651 0.235000 0.488670
v -0.427349 -0.235000 0.488670
v 0.462651 -0.235000 0.488670
vn -0.0000 0.9733 0.2296
vn -0.0000 -0.9733 0.2296
vn 0.7071 -0.0000 -0.7071
vn -0.7071 -0.0000 -0.7071
vn -0.7165 0.0235 0.6972
vn 0.7071 -0.0000 0.7071
vt 0.750000 0.750000
vt 0.687500 0.687500
vt 0.750000 0.625000
vt 0.810792 0.685792
vt 0.250000 0.625000
vt 0.312500 0.687500
vt 0.250000 0.750000
vt 0.187500 0.687500
s 0
f 44/52/36 46/53/36 41/54/36 45/55/36
f 42/56/37 48/57/37 43/58/37 47/59/37
f 41/54/38 46/53/38 48/57/38 42/56/38
f 41/54/39 42/56/39 47/59/39 45/55/39
f 43/58/40 44/52/40 45/55/40 47/59/40
f 43/58/41 48/57/41 46/53/41 44/52/41
