# Blender 5.0.0
# www.blender.org
mtllib Triangle1.mtl
o MiniTriangle1
v -0.962861 -0.128197 0.964543
v -0.962861 0.131803 0.964543
v -0.962999 -0.128301 0.074571
v -0.962999 0.131699 0.074571
v -0.505702 0.239672 0.507384
v -0.517861 -0.233197 0.519543
v -0.072723 -0.128094 0.964516
v -0.072723 0.131906 0.964516
vn -0.2297 0.9733 -0.0001
vn -1.0000 -0.0000 0.0002
vn -0.2295 -0.9733 0.0001
vn 0.7071 -0.0000 0.7071
vn 0.6971 -0.0235 -0.7166
vn -0.0000 -0.0000 1.0000
vn -0.0001 0.9733 0.2295
vn 0.0001 -0.9732 0.2298
vn 0.7163 -0.0235 -0.6974
vt 0.875000 0.750000
vt 0.810792 0.685792
vt 0.875000 0.625000
vt 0.375000 0.125000
vt 0.375000 0.000000
vt 0.625000 0.000000
vt 0.125000 0.625000
vt 0.187500 0.687500
vt 0.125000 0.750000
vt 0.375000 0.875000
vt 0.625000 0.875000
vt 0.625000 1.000000
vt 0.375000 1.000000
vt 0.750000 0.750000
vt 0.250000 0.750000
s 0
f 2/1/1 5/2/1 4/3/1
f 3/4/2 1/5/2 2/6/2 4/3/2
f 3/7/3 6/8/3 1/9/3
f 1/9/4 6/8/4 5/2/4 2/1/4
f 3/7/5 4/3/5 5/2/5 6/8/5
f 7/10/6 8/11/6 2/12/6 1/13/6
f 8/14/7 5/2/7 2/1/7
f 6/8/8 7/15/8 1/9/8
f 7/15/9 6/8/9 5/2/9 8/14/9
